<?xml version="1.0" encoding="UTF-8" standalone="no"?>
<!-- Created with Inkscape (http://www.inkscape.org/) -->
<svg id="svg2" xmlns:rdf="http://www.w3.org/1999/02/22-rdf-syntax-ns#" xmlns="http://www.w3.org/2000/svg" height="558.26" width="1434.9" version="1.1" xmlns:cc="http://creativecommons.org/ns#" xmlns:dc="http://purl.org/dc/elements/1.1/">
 <metadata id="metadata7">
  <rdf:RDF>
   <cc:Work rdf:about="">
    <dc:format>image/svg+xml</dc:format>
    <dc:type rdf:resource="http://purl.org/dc/dcmitype/StillImage"/>
    <dc:title/>
   </cc:Work>
  </rdf:RDF>
 </metadata>
 <g id="text2985" style="letter-spacing:0px;word-spacing:0px;" line-height="125%" transform="translate(1117.1713,-164.17681)" font-family="Josefin Slab" font-size="309.24938965px" font-style="normal" font-stretch="normal" font-variant="normal" font-weight="normal" fill="#000">
  <path id="path3030" d="m-1067.2,582.75,18.864,0,0-191.73-18.864,0,0-12.37,65.252,0c6.3911,0.00022,13.401,1.031,21.029,3.0925,7.628,2.0619,14.741,5.3605,21.338,9.896,6.8034,4.5359,12.473,10.412,17.009,17.627,4.5355,7.216,6.8033,15.875,6.8035,25.977-0.00014,17.73-5.6697,31.853-17.009,42.367-11.133,10.515-27.317,15.772-48.552,15.772h-34.327v89.373h30.616v12.37h-62.159v-12.37m31.543-102.05,32.162,0c10.721,0.00012,19.586-1.443,26.595-4.3295,7.2157-2.8862,12.885-6.5972,17.009-11.133,4.3294-4.5355,7.3188-9.3804,8.9682-14.535,1.6492-5.3602,2.4739-10.514,2.474-15.462-0.00013-5.7725-1.4433-11.339-4.3295-16.699-2.6803-5.3601-6.4944-10.102-11.442-14.225-4.9481-4.1231-10.824-7.3187-17.627-9.5867-6.5974-2.4738-13.71-3.7108-21.338-3.711h-32.471v89.682"/>
  <path id="path3032" d="m-914.36,536.98c-0.00001-8.2466,1.5462-15.978,4.6388-23.194,3.2986-7.4219,7.6281-13.813,12.988-19.173,5.5664-5.5664,12.061-9.8959,19.483-12.988,7.4219-3.2985,15.359-4.9479,23.812-4.948,5.9788,0.00012,11.648,0.92787,17.009,2.7832,5.3602,1.6494,10.205,3.9173,14.535,6.8035,4.3294,2.6803,7.9373,5.8758,10.824,9.5867,3.0924,3.5049,5.3602,7.0098,6.8035,10.514-0.00012-4.5356,0.10296-9.0712,0.30925-13.607,0.41221-4.5356,0.72146-9.0712,0.92774-13.607h10.514v103.6h22.884v12.37h-34.636v-12.37c-0.00012-2.474-0.00012-4.8449,0-7.1127,0.20604-2.474,0.30913-4.8449,0.30925-7.1127-1.4433,3.5048-3.7111,7.0097-6.8035,10.514-2.8864,3.5048-6.4944,6.5973-10.824,9.2775-4.1234,2.6802-8.9683,4.8449-14.535,6.4942-5.3604,1.6493-11.133,2.474-17.318,2.474-8.4529,0-16.39-1.5462-23.812-4.6387-7.422-3.2986-13.916-7.6281-19.483-12.988-5.3604-5.3603-9.6898-11.648-12.988-18.864-3.0925-7.422-4.6388-15.359-4.6388-23.812m12.988,0c-0.00002,6.5974,1.237,12.782,3.711,18.555,2.474,5.7727,5.7726,10.824,9.896,15.153,4.3294,4.3295,9.3805,7.7312,15.153,10.205,5.9788,2.474,12.37,3.711,19.173,3.711,6.8034,0.00001,13.091-1.237,18.864-3.711,5.7726-2.474,10.824-5.8757,15.153-10.205,4.3294-4.3295,7.7311-9.3805,10.205-15.153,2.4739-5.7726,3.7109-11.958,3.711-18.555-0.00012-6.5972-1.2371-12.782-3.711-18.555-2.4741-5.9787-5.8758-11.133-10.205-15.462-4.3296-4.3294-9.3807-7.7311-15.153-10.205-5.7727-2.4739-12.061-3.7109-18.864-3.711-6.8036,0.0001-13.195,1.2371-19.173,3.711-5.7727,2.4741-10.824,5.8758-15.153,10.205-4.1234,4.3296-7.422,9.4837-9.896,15.462-2.474,5.7727-3.711,11.958-3.711,18.555"/>
  <path id="path3034" d="m-745.78,660.06,20.72,0,0-168.54-23.194,0,0-12.37,33.399,0c-0.00005,4.5358,0.10304,9.1745,0.30925,13.916,0.41228,4.7419,0.72153,9.3807,0.92775,13.916,1.4431-3.7109,3.6079-7.3188,6.4942-10.824,3.0924-3.7109,6.8034-6.9065,11.133-9.5867,4.3294-2.8862,9.1743-5.154,14.535-6.8035,5.5664-1.8554,11.339-2.7831,17.318-2.7832,8.4527,0.00012,16.39,1.6494,23.812,4.948,7.4219,3.0926,13.813,7.319,19.173,12.679,5.5664,5.3604,9.8958,11.752,12.988,19.173,3.0923,7.4221,4.6386,15.256,4.6387,23.503-0.00016,8.2467-1.5464,16.081-4.6387,23.503-3.0926,7.2158-7.4221,13.607-12.988,19.173-5.3604,5.3603-11.752,9.6898-19.173,12.988-7.4221,3.0925-15.359,4.6387-23.812,4.6387-6.1851,0-11.958-0.82466-17.318-2.474-5.3604-1.6493-10.205-3.711-14.535-6.185-4.1234-2.6802-7.7313-5.6696-10.824-8.9682-2.8864-3.5048-5.0511-7.1127-6.4942-10.824,0.20612,2.0617,0.41229,4.1234,0.6185,6.185,0.20612,2.0617,0.41229,4.1233,0.6185,6.185v78.549h25.977v12.37h-59.685v-12.37m129.26-122.78c-0.00014-6.8034-1.2371-13.091-3.711-18.864-2.4741-5.7726-5.8759-10.721-10.205-14.844-4.1234-4.3294-9.0714-7.7311-14.844-10.205-5.7728-2.4739-12.061-3.7109-18.864-3.711-6.8036,0.0001-13.195,1.2371-19.173,3.711-5.7727,2.4741-10.824,5.8758-15.153,10.205-4.3296,4.1234-7.7313,9.0714-10.205,14.844-2.474,5.7727-3.711,12.061-3.711,18.864-0.00004,6.5974,1.237,12.885,3.711,18.864,2.4739,5.7727,5.8757,10.824,10.205,15.153,4.3294,4.3295,9.3805,7.7313,15.153,10.205,5.9787,2.474,12.37,3.711,19.173,3.711,6.8034,0.00001,13.091-1.237,18.864-3.711,5.7725-2.474,10.721-5.8757,14.844-10.205,4.3294-4.3295,7.7311-9.3805,10.205-15.153,2.4738-5.9788,3.7108-12.267,3.711-18.864"/>
  <path id="path3036" d="m-521.54,489.05c-7.6282,0.0001-14.638,1.6494-21.029,4.948-6.185,3.0926-11.442,7.319-15.772,12.679-4.3295,5.1542-7.422,11.236-9.2775,18.246-1.6494,6.8036-1.7524,13.813-0.30925,21.029,13.813-5.5664,27.626-11.03,41.439-16.39,13.813-5.5664,27.729-11.133,41.749-16.699-3.5049-7.0096-8.556-12.679-15.153-17.009-6.5974-4.5356-13.813-6.8034-21.647-6.8035m53.191,30.925c-16.081,6.3912-32.059,12.782-47.934,19.173-15.875,6.185-31.853,12.473-47.934,18.864,3.5048,7.8344,9.0713,14.226,16.699,19.173,7.6281,4.948,16.287,7.422,25.977,7.422,6.3911,0.00001,12.37-1.1339,17.936-3.4017,5.5664-2.2678,10.411-5.4634,14.535-9.5867,1.4431,1.6494,2.7831,3.2987,4.0202,4.948,1.2369,1.4432,2.577,2.9894,4.0202,4.6388-5.3604,4.948-11.442,8.8652-18.246,11.751-6.8036,2.8863-14.226,4.3295-22.266,4.3295-8.4529,0-16.39-1.5462-23.812-4.6387-7.2159-3.2986-13.607-7.6281-19.173-12.988-5.3604-5.3603-9.6898-11.648-12.988-18.864-3.0925-7.422-4.6388-15.359-4.6387-23.812-0.00001-8.2466,1.5462-16.081,4.6387-23.503,3.2986-7.4219,7.6281-13.813,12.988-19.173,5.5664-5.3602,11.958-9.5866,19.173-12.679,7.4219-3.2985,15.359-4.9479,23.812-4.948,6.1849,0.00012,12.061,1.134,17.627,3.4017,5.5664,2.0618,10.617,5.0512,15.153,8.9682,4.7417,3.7111,8.865,8.2468,12.37,13.607,3.5047,5.1542,6.1849,10.927,8.0405,17.318"/>
  <path id="path3038" d="m-445.65,582.75,24.121,0,0-91.229-22.266,0,0-12.37,32.78,0,0.30925,10.824c0.20612,3.5049,0.41229,6.7005,0.6185,9.5867,0.20612,2.8864,0.3092,6.082,0.30925,9.5867,4.7418-10.102,11.648-17.936,20.72-23.503,9.2774-5.7725,18.658-8.7619,28.142-8.9682l-0.92775,12.679c-6.5974,0.20627-12.782,1.4433-18.555,3.711-5.5666,2.0618-10.515,4.9481-14.844,8.659-4.1234,3.7111-7.422,8.1436-9.896,13.298-2.474,5.1542-3.711,10.721-3.711,16.699v51.026h22.884v12.37h-59.685v-12.37"/>
  <path id="path3040" d="m-339.35,582.75,23.812,0,0-91.229-23.812,0,0-12.37,36.801,0,0,103.6,22.884,0,0,12.37-59.685,0,0-12.37m20.41-144.73c-0.00003-2.8862,1.0308-5.2571,3.0925-7.1127,2.0616-2.0615,4.4325-3.0923,7.1127-3.0925,2.474,0.00017,4.7418,1.031,6.8035,3.0925,2.0616,1.8557,3.0924,4.2266,3.0925,7.1127-0.00005,2.8865-1.0309,5.3605-3.0925,7.422-2.0617,1.8556-4.3295,2.7834-6.8035,2.7832-2.6802,0.00014-5.0511-0.9276-7.1127-2.7832-2.0617-2.0615-3.0925-4.5355-3.0925-7.422"/>
  <path id="path3042" d="m-240.8,563.27,0,15.772c3.711,2.6802,7.7312,4.3295,12.061,4.948,4.5356,0.61851,8.9682,0.92776,13.298,0.92775,1.8554,0.00001,4.1233-0.30924,6.8035-0.92775,2.6801-0.82465,5.2572-2.0616,7.7312-3.711,2.4739-1.8555,4.6387-4.1233,6.4942-6.8035,1.8554-2.6801,2.7832-5.9788,2.7832-9.896-0.00008-5.3603-1.3402-9.4836-4.0202-12.37-2.6802-2.8863-6.1851-5.1541-10.514-6.8035-4.1234-1.8554-8.659-3.4017-13.607-4.6387-4.948-1.4431-9.5868-3.2986-13.916-5.5665-4.1234-2.2678-7.6282-5.2572-10.514-8.9682-2.8864-3.7109-4.3295-8.9682-4.3295-15.772-0.00002-5.3602,1.0308-9.999,3.0925-13.916,2.0616-4.1232,4.6387-7.525,7.7312-10.205,3.2986-2.68,6.9065-4.6386,10.824-5.8757,4.1233-1.443,8.0404-2.1646,11.751-2.1648,0.82462,0.00012,2.4739,0.1032,4.948,0.30925,2.6801,0.20628,5.6695,0.7217,8.9682,1.5462,3.2986,0.61861,6.4942,1.6494,9.5867,3.0925,3.2986,1.4433,6.0818,3.4018,8.3497,5.8757v22.884h-11.751v-16.39c-1.4432-1.2369-3.1956-2.1646-5.2572-2.7832-2.0617-0.61839-4.1234-1.0307-6.185-1.237-1.8556-0.41222-3.608-0.61839-5.2572-0.61849-1.4432,0.0001-2.474,0.0001-3.0925,0-2.474,0.0001-4.948,0.41243-7.422,1.237-2.474,0.6186-4.7419,1.7525-6.8035,3.4018-2.0617,1.4433-3.711,3.4018-4.948,5.8757-1.0309,2.2679-1.5463,5.1542-1.5462,8.659-0.00003,4.5357,1.4431,8.1436,4.3295,10.824,2.8863,2.4741,6.3911,4.6388,10.514,6.4942,4.3294,1.6494,8.8651,3.2987,13.607,4.948,4.9479,1.4432,9.4836,3.4018,13.607,5.8757,4.3294,2.474,7.8342,5.6696,10.514,9.5867,2.8862,3.9172,4.3294,9.1744,4.3295,15.772-0.00009,3.5049-0.72167,7.3189-2.1647,11.442-1.2371,3.9172-3.2988,7.6282-6.185,11.133-2.8864,3.5048-6.8036,6.4942-11.751,8.9682-4.7419,2.2678-10.515,3.4017-17.318,3.4017-2.0617,0-4.7419-0.20617-8.0405-0.6185-3.0925-0.20616-6.3912-0.72158-9.896-1.5462-3.5049-0.82467-6.9066-1.9586-10.205-3.4018-3.2987-1.4432-6.0819-3.4017-8.3497-5.8757v-22.884h11.751"/>
  <path id="path3044" d="m-131.24,403.7,12.988,0,0,75.457,35.564,0,0,12.679-35.564,0,0,90.919,25.358,0,0,12.37-38.347,0,0-103.29-26.905,0,0-12.679,26.905,0,0-75.457"/>
 </g>
 <g id="g3893" fill-rule="evenodd" transform="matrix(0.54466374,0.14594221,-0.14594221,0.54466374,544.81023,-223.06158)">
  <path id="path605" stroke-linejoin="bevel" d="m1113.2,896.05,44.855-239.8s89.71-172.52,106.96-210.47c17.251-37.954,36.228-101.78,43.129-108.69,6.901-6.901,39.679-15.527,56.931-5.176,24.153,10.351,39.679,36.229,39.679,43.13-3.4499,17.252-48.305,67.282-82.808,193.22-18.977,60.382-8.6261,127.66-8.6261,127.66s-62.107,8.626-93.16,37.954c-48.305,41.404-106.96,163.89-106.96,162.17z" stroke="#000" stroke-miterlimit="4" stroke-dasharray="none" stroke-width="17.73435211" fill="#FFF"/>
  <path id="path777" fill="#000" d="m1370.5,334.75-138.2,264.47-119.1,296.84c0,1.75,58.625-120.75,106.94-162.19,31.063-29.312,93.188-37.938,93.188-37.938s-10.375-67.313,8.625-127.69c34.5-125.94,79.375-175.94,82.812-193.19,0.0001-6.375-13.25-28.875-34.312-40.312zm8.4374,17.875,10.344,22.406s-79.342,119.03-96.594,236.34c-12.076,50.03-8.625,60.406-8.625,60.406,1.7252,1.7253-10.373,1.7307-27.625,6.9062s-44.844,34.5-44.844,34.5l173.69-369.17z"/>
  <path id="path739" stroke-linejoin="bevel" d="m1557.8,186.3c-35.75,78.688-75.875,148.44-114.69,201.81l-40.375-19.625c-4.75-10.438-18.5-28.375-37.625-36.562-11.125-6.6875-28.75-5.5-41.625-1.875l-36.25-17.562c11.75-48.5,29.75-103.5,53.688-161.25l217.53-57.956c-0.5625,0.8125,14.342,59.456,13.592,60.081-4.4375,10.812-9.1875,21.812-14.25,32.938z" stroke="#000" stroke-miterlimit="4" stroke-dasharray="none" stroke-width="17.73435211" fill="#FFF"/>
  <path id="path731" d="m1443.8,389.49c-6.9375,14.375-28.125,19.625-54.188,15.375,8.75-15.437,14.062-24.312,15.188-29.812,0-6.9375-15.562-32.812-39.688-43.125-17.25-10.375-50-1.75-56.938,5.1875-2,2-5,8.75-8.875,19.062-13.312-15.312-18.562-31.125-12.75-43.062,10.688-21.938,54.5-22.625,97.938-1.5,43.438,21.062,70,55.937,59.313,77.875z" stroke="#000" stroke-dasharray="none" stroke-miterlimit="4" stroke-width="17.73435211" fill="#000"/>
  <path id="path740" fill="#000" d="m1197.3,634.47a6.0045,15.93,0,1,0,-11.733,-6.792,6.0045,15.93,0,1,0,11.733,6.792z"/>
  <path id="path627" stroke-width="0.68109298" fill="#000" d="m1275.3,421.9c-3.1286,12.421,0.8433,15.054,7.5752,15.584,11.586,0.95309,25.285-4.4367,55.686-31.985-61.276,62.951-65.576,77.435-100.54,128.74,17.883-62.519,27.69-85.367,37.282-112.34z"/>
 </g>
</svg>
